<svg width="525" height="382" viewBox="0 0 525 382" fill="none" xmlns="http://www.w3.org/2000/svg">
<path d="M305.35 67.2113C315.174 67.2113 323.138 59.247 323.138 49.4224C323.138 39.5978 315.174 31.6334 305.35 31.6334C295.525 31.6334 287.561 39.5978 287.561 49.4224C287.561 59.247 295.525 67.2113 305.35 67.2113Z" fill="#F2F2F2"/>
<path d="M443.344 331.22C469.785 311.08 482.414 277.238 474.508 244.954C474.312 244.152 474.104 243.352 473.886 242.553C468.644 223.39 455.677 205.177 436.777 199.054C420.907 193.913 403.585 197.866 387.029 195.822C354.53 191.808 329.333 165.512 311.604 137.98C293.875 110.447 280.25 79.6287 256.692 56.8829C217.861 19.3903 154.517 11.3181 106.372 35.723C58.2267 60.1279 27.5587 114.272 28.8666 168.234C30.1746 222.196 62.2092 273.787 108.731 301.159C125.822 311.214 145.588 318.338 165.26 315.845C182.329 313.682 197.838 304.511 214.827 301.788C241.537 297.507 268.077 309.583 291.179 323.656C314.282 337.729 336.597 354.41 362.849 360.934C388.34 367.269 419.921 349.06 443.344 331.22Z" fill="#F2F2F2"/>
<path d="M405.354 36.8561C404.775 36.4697 404.188 36.1032 403.609 35.7302C386.854 25.0143 368.895 16.3088 350.103 9.79364L345.746 69.9013H318.124V1.01934C316.385 0.659571 314.633 0.319792 312.881 0V69.9013H280.055C261.985 69.9013 244.654 62.7228 231.876 49.9448C219.098 37.1669 211.92 19.8363 211.92 1.7656V1.76554C210.161 2.14529 208.415 2.5517 206.67 2.98475V69.9013H179.934L175.783 12.5852C156.472 19.9912 138.139 29.7306 121.192 41.5864C120.899 41.7862 120.606 41.9928 120.319 42.1926C118.847 43.2253 117.394 44.278 115.949 45.3439V274.655H194.744L193.352 255.368L185.69 149.47H339.983L332.322 255.368L330.929 274.655H408.852V39.1746C407.693 38.3885 406.527 37.6156 405.354 36.8561ZM206.67 131.981H184.424L180.314 75.1512H206.67V131.981ZM312.881 131.981H275.518V130.855C275.519 130.314 275.412 129.778 275.204 129.278C274.997 128.778 274.693 128.324 274.31 127.941C273.927 127.559 273.473 127.256 272.972 127.049C272.472 126.843 271.936 126.737 271.395 126.738H255.152C254.611 126.738 254.075 126.844 253.576 127.051C253.076 127.258 252.622 127.561 252.24 127.943C251.857 128.326 251.554 128.78 251.347 129.279C251.141 129.779 251.034 130.314 251.034 130.855V131.981H211.92V75.1512H312.881V131.981ZM318.124 131.981V75.1512H345.367L341.256 131.981H318.124Z" fill="#3F3D56"/>
<path d="M0 289.339C5.78775 296.197 12.0479 302.642 18.7345 308.627L505.472 309.293C512.159 303.308 518.419 296.863 524.206 290.006L0 289.339Z" fill="#3F3D56"/>
<path d="M330.073 227.58V284.679C330.073 285.406 330.362 286.104 330.877 286.619C331.391 287.133 332.089 287.422 332.817 287.423H417.432C418.159 287.423 418.857 287.133 419.371 286.619C419.886 286.104 420.175 285.406 420.176 284.679V227.58C420.174 226.853 419.884 226.156 419.37 225.642C418.856 225.129 418.159 224.84 417.432 224.839H332.817C332.09 224.84 331.393 225.129 330.878 225.642C330.364 226.156 330.074 226.853 330.073 227.58Z" fill="#3F3D56"/>
<path d="M332.057 228.29V283.974C332.058 284.363 332.213 284.736 332.488 285.011C332.763 285.286 333.135 285.44 333.524 285.441H416.727C417.116 285.44 417.489 285.286 417.763 285.011C418.038 284.736 418.193 284.363 418.194 283.974V228.29C418.194 227.901 418.039 227.528 417.764 227.252C417.489 226.977 417.116 226.821 416.727 226.821H333.524C333.135 226.821 332.762 226.977 332.487 227.252C332.212 227.528 332.058 227.901 332.057 228.29Z" fill="#625B9C"/>
<path d="M328.303 295.815C328.458 296.009 328.655 296.166 328.879 296.273C329.103 296.38 329.349 296.435 329.598 296.434H420.2C420.448 296.434 420.692 296.378 420.916 296.272C421.14 296.165 421.337 296.01 421.493 295.817C421.649 295.625 421.76 295.4 421.818 295.159C421.877 294.918 421.881 294.668 421.83 294.425L420.423 287.745C420.365 287.472 420.239 287.219 420.058 287.007C419.877 286.796 419.646 286.633 419.385 286.533C419.197 286.46 418.996 286.422 418.794 286.422H330.998C330.796 286.422 330.595 286.46 330.407 286.533C330.146 286.633 329.915 286.796 329.734 287.007C329.552 287.219 329.427 287.472 329.369 287.745L327.962 294.425C327.912 294.667 327.917 294.918 327.976 295.158C328.035 295.399 328.146 295.623 328.303 295.815Z" fill="#2F2E41"/>
<path d="M415.685 289.299H417.825C418.005 289.299 418.15 289.154 418.15 288.974V287.95C418.15 287.771 418.005 287.625 417.825 287.625H415.685C415.505 287.625 415.36 287.771 415.36 287.95V288.974C415.36 289.154 415.505 289.299 415.685 289.299Z" fill="#3F3D56"/>
<path d="M410.104 289.299H412.244C412.424 289.299 412.569 289.154 412.569 288.974V287.95C412.569 287.771 412.424 287.625 412.244 287.625H410.104C409.924 287.625 409.779 287.771 409.779 287.95V288.974C409.779 289.154 409.924 289.299 410.104 289.299Z" fill="#3F3D56"/>
<path d="M404.523 289.299H406.663C406.842 289.299 406.988 289.154 406.988 288.974V287.95C406.988 287.771 406.842 287.625 406.663 287.625H404.523C404.343 287.625 404.198 287.771 404.198 287.95V288.974C404.198 289.154 404.343 289.299 404.523 289.299Z" fill="#3F3D56"/>
<path d="M398.942 289.299H401.082C401.262 289.299 401.407 289.154 401.407 288.974V287.95C401.407 287.771 401.262 287.625 401.082 287.625H398.942C398.762 287.625 398.617 287.771 398.617 287.95V288.974C398.617 289.154 398.762 289.299 398.942 289.299Z" fill="#3F3D56"/>
<path d="M393.361 289.299H395.501C395.68 289.299 395.826 289.154 395.826 288.974V287.95C395.826 287.771 395.68 287.625 395.501 287.625H393.361C393.181 287.625 393.035 287.771 393.035 287.95V288.974C393.035 289.154 393.181 289.299 393.361 289.299Z" fill="#3F3D56"/>
<path d="M387.78 289.299H389.92C390.099 289.299 390.245 289.154 390.245 288.974V287.95C390.245 287.771 390.099 287.625 389.92 287.625H387.78C387.6 287.625 387.454 287.771 387.454 287.95V288.974C387.454 289.154 387.6 289.299 387.78 289.299Z" fill="#3F3D56"/>
<path d="M382.199 289.299H384.339C384.518 289.299 384.664 289.154 384.664 288.974V287.95C384.664 287.771 384.518 287.625 384.339 287.625H382.199C382.019 287.625 381.873 287.771 381.873 287.95V288.974C381.873 289.154 382.019 289.299 382.199 289.299Z" fill="#3F3D56"/>
<path d="M376.618 289.299H378.758C378.937 289.299 379.083 289.154 379.083 288.974V287.95C379.083 287.771 378.937 287.625 378.758 287.625H376.618C376.438 287.625 376.293 287.771 376.293 287.95V288.974C376.293 289.154 376.438 289.299 376.618 289.299Z" fill="#3F3D56"/>
<path d="M371.037 289.299H373.177C373.356 289.299 373.502 289.154 373.502 288.974V287.95C373.502 287.771 373.356 287.625 373.177 287.625H371.037C370.857 287.625 370.711 287.771 370.711 287.95V288.974C370.711 289.154 370.857 289.299 371.037 289.299Z" fill="#3F3D56"/>
<path d="M365.456 289.299H367.596C367.775 289.299 367.921 289.154 367.921 288.974V287.95C367.921 287.771 367.775 287.625 367.596 287.625H365.456C365.276 287.625 365.13 287.771 365.13 287.95V288.974C365.13 289.154 365.276 289.299 365.456 289.299Z" fill="#3F3D56"/>
<path d="M359.874 289.299H362.014C362.194 289.299 362.34 289.154 362.34 288.974V287.95C362.34 287.771 362.194 287.625 362.014 287.625H359.874C359.695 287.625 359.549 287.771 359.549 287.95V288.974C359.549 289.154 359.695 289.299 359.874 289.299Z" fill="#3F3D56"/>
<path d="M354.294 289.299H356.434C356.613 289.299 356.759 289.154 356.759 288.974V287.95C356.759 287.771 356.613 287.625 356.434 287.625H354.294C354.114 287.625 353.968 287.771 353.968 287.95V288.974C353.968 289.154 354.114 289.299 354.294 289.299Z" fill="#3F3D56"/>
<path d="M348.712 289.299H350.852C351.032 289.299 351.178 289.154 351.178 288.974V287.95C351.178 287.771 351.032 287.625 350.852 287.625H348.712C348.533 287.625 348.387 287.771 348.387 287.95V288.974C348.387 289.154 348.533 289.299 348.712 289.299Z" fill="#3F3D56"/>
<path d="M343.131 289.299H345.271C345.451 289.299 345.597 289.154 345.597 288.974V287.95C345.597 287.771 345.451 287.625 345.271 287.625H343.131C342.952 287.625 342.806 287.771 342.806 287.95V288.974C342.806 289.154 342.952 289.299 343.131 289.299Z" fill="#3F3D56"/>
<path d="M337.55 289.299H339.69C339.87 289.299 340.016 289.154 340.016 288.974V287.95C340.016 287.771 339.87 287.625 339.69 287.625H337.55C337.371 287.625 337.225 287.771 337.225 287.95V288.974C337.225 289.154 337.371 289.299 337.55 289.299Z" fill="#3F3D56"/>
<path d="M331.969 289.299H334.109C334.289 289.299 334.435 289.154 334.435 288.974V287.95C334.435 287.771 334.289 287.625 334.109 287.625H331.969C331.79 287.625 331.644 287.771 331.644 287.95V288.974C331.644 289.154 331.79 289.299 331.969 289.299Z" fill="#3F3D56"/>
<path d="M415.751 292.09H417.891C418.07 292.09 418.216 291.944 418.216 291.764V290.741C418.216 290.561 418.07 290.415 417.891 290.415H415.751C415.571 290.415 415.426 290.561 415.426 290.741V291.764C415.426 291.944 415.571 292.09 415.751 292.09Z" fill="#3F3D56"/>
<path d="M410.17 292.09H412.31C412.489 292.09 412.635 291.944 412.635 291.764V290.741C412.635 290.561 412.489 290.415 412.31 290.415H410.17C409.99 290.415 409.845 290.561 409.845 290.741V291.764C409.845 291.944 409.99 292.09 410.17 292.09Z" fill="#3F3D56"/>
<path d="M404.589 292.09H406.729C406.908 292.09 407.054 291.944 407.054 291.764V290.741C407.054 290.561 406.908 290.415 406.729 290.415H404.589C404.409 290.415 404.264 290.561 404.264 290.741V291.764C404.264 291.944 404.409 292.09 404.589 292.09Z" fill="#3F3D56"/>
<path d="M399.008 292.09H401.148C401.327 292.09 401.473 291.944 401.473 291.764V290.741C401.473 290.561 401.327 290.415 401.148 290.415H399.008C398.828 290.415 398.683 290.561 398.683 290.741V291.764C398.683 291.944 398.828 292.09 399.008 292.09Z" fill="#3F3D56"/>
<path d="M393.427 292.09H395.567C395.746 292.09 395.892 291.944 395.892 291.764V290.741C395.892 290.561 395.746 290.415 395.567 290.415H393.427C393.247 290.415 393.101 290.561 393.101 290.741V291.764C393.101 291.944 393.247 292.09 393.427 292.09Z" fill="#3F3D56"/>
<path d="M387.846 292.09H389.986C390.165 292.09 390.311 291.944 390.311 291.764V290.741C390.311 290.561 390.165 290.415 389.986 290.415H387.846C387.666 290.415 387.52 290.561 387.52 290.741V291.764C387.52 291.944 387.666 292.09 387.846 292.09Z" fill="#3F3D56"/>
<path d="M382.265 292.09H384.405C384.584 292.09 384.73 291.944 384.73 291.764V290.741C384.73 290.561 384.584 290.415 384.405 290.415H382.265C382.085 290.415 381.939 290.561 381.939 290.741V291.764C381.939 291.944 382.085 292.09 382.265 292.09Z" fill="#3F3D56"/>
<path d="M376.684 292.09H378.824C379.003 292.09 379.149 291.944 379.149 291.764V290.741C379.149 290.561 379.003 290.415 378.824 290.415H376.684C376.504 290.415 376.358 290.561 376.358 290.741V291.764C376.358 291.944 376.504 292.09 376.684 292.09Z" fill="#3F3D56"/>
<path d="M371.103 292.09H373.243C373.422 292.09 373.568 291.944 373.568 291.764V290.741C373.568 290.561 373.422 290.415 373.243 290.415H371.103C370.923 290.415 370.777 290.561 370.777 290.741V291.764C370.777 291.944 370.923 292.09 371.103 292.09Z" fill="#3F3D56"/>
<path d="M365.522 292.09H367.662C367.841 292.09 367.987 291.944 367.987 291.764V290.741C367.987 290.561 367.841 290.415 367.662 290.415H365.522C365.342 290.415 365.196 290.561 365.196 290.741V291.764C365.196 291.944 365.342 292.09 365.522 292.09Z" fill="#3F3D56"/>
<path d="M359.941 292.09H362.081C362.26 292.09 362.406 291.944 362.406 291.764V290.741C362.406 290.561 362.26 290.415 362.081 290.415H359.941C359.761 290.415 359.615 290.561 359.615 290.741V291.764C359.615 291.944 359.761 292.09 359.941 292.09Z" fill="#3F3D56"/>
<path d="M354.359 292.09H356.499C356.679 292.09 356.825 291.944 356.825 291.764V290.741C356.825 290.561 356.679 290.415 356.499 290.415H354.359C354.18 290.415 354.034 290.561 354.034 290.741V291.764C354.034 291.944 354.18 292.09 354.359 292.09Z" fill="#3F3D56"/>
<path d="M348.779 292.09H350.919C351.098 292.09 351.244 291.944 351.244 291.764V290.741C351.244 290.561 351.098 290.415 350.919 290.415H348.779C348.599 290.415 348.453 290.561 348.453 290.741V291.764C348.453 291.944 348.599 292.09 348.779 292.09Z" fill="#3F3D56"/>
<path d="M343.197 292.09H345.337C345.517 292.09 345.663 291.944 345.663 291.764V290.741C345.663 290.561 345.517 290.415 345.337 290.415H343.197C343.018 290.415 342.872 290.561 342.872 290.741V291.764C342.872 291.944 343.018 292.09 343.197 292.09Z" fill="#3F3D56"/>
<path d="M337.617 292.09H339.757C339.936 292.09 340.082 291.944 340.082 291.764V290.741C340.082 290.561 339.936 290.415 339.757 290.415H337.617C337.437 290.415 337.291 290.561 337.291 290.741V291.764C337.291 291.944 337.437 292.09 337.617 292.09Z" fill="#3F3D56"/>
<path d="M332.035 292.09H334.175C334.355 292.09 334.501 291.944 334.501 291.764V290.741C334.501 290.561 334.355 290.415 334.175 290.415H332.035C331.856 290.415 331.71 290.561 331.71 290.741V291.764C331.71 291.944 331.856 292.09 332.035 292.09Z" fill="#3F3D56"/>
<path d="M369.428 295.438H391.102C391.282 295.438 391.427 295.293 391.427 295.113V294.089C391.427 293.91 391.282 293.764 391.102 293.764H369.428C369.249 293.764 369.103 293.91 369.103 294.089V295.113C369.103 295.293 369.249 295.438 369.428 295.438Z" fill="#3F3D56"/>
<path d="M346.466 239.003H344.571C343.997 239.003 343.531 239.469 343.531 240.043C343.531 240.617 343.997 241.083 344.571 241.083H346.466C347.04 241.083 347.506 240.617 347.506 240.043C347.506 239.469 347.04 239.003 346.466 239.003Z" fill="white"/>
<path d="M368.134 239.003H366.239C365.665 239.003 365.199 239.469 365.199 240.043C365.199 240.617 365.665 241.083 366.239 241.083H368.134C368.708 241.083 369.174 240.617 369.174 240.043C369.174 239.469 368.708 239.003 368.134 239.003Z" fill="white"/>
<path d="M374.273 239.003H372.378C371.804 239.003 371.338 239.469 371.338 240.043C371.338 240.617 371.804 241.083 372.378 241.083H374.273C374.847 241.083 375.313 240.617 375.313 240.043C375.313 239.469 374.847 239.003 374.273 239.003Z" fill="white"/>
<path d="M362.24 238.83H350.465C349.891 238.83 349.425 239.295 349.425 239.87C349.425 240.444 349.891 240.91 350.465 240.91H362.24C362.814 240.91 363.28 240.444 363.28 239.87C363.28 239.295 362.814 238.83 362.24 238.83Z" fill="white"/>
<path d="M391.13 238.83H379.355C378.781 238.83 378.315 239.295 378.315 239.87C378.315 240.444 378.781 240.91 379.355 240.91H391.13C391.705 240.91 392.171 240.444 392.171 239.87C392.171 239.295 391.705 238.83 391.13 238.83Z" fill="white"/>
<path d="M352.244 243.698H350.349C349.775 243.698 349.309 244.163 349.309 244.738C349.309 245.312 349.775 245.778 350.349 245.778H352.244C352.818 245.778 353.284 245.312 353.284 244.738C353.284 244.163 352.818 243.698 352.244 243.698Z" fill="white"/>
<path d="M373.912 243.698H372.017C371.443 243.698 370.977 244.163 370.977 244.738C370.977 245.312 371.443 245.778 372.017 245.778H373.912C374.486 245.778 374.952 245.312 374.952 244.738C374.952 244.163 374.486 243.698 373.912 243.698Z" fill="white"/>
<path d="M380.051 243.698H378.156C377.582 243.698 377.116 244.163 377.116 244.738C377.116 245.312 377.582 245.778 378.156 245.778H380.051C380.625 245.778 381.091 245.312 381.091 244.738C381.091 244.163 380.625 243.698 380.051 243.698Z" fill="white"/>
<path d="M368.018 243.524H356.243C355.669 243.524 355.203 243.99 355.203 244.564C355.203 245.139 355.669 245.604 356.243 245.604H368.018C368.592 245.604 369.058 245.139 369.058 244.564C369.058 243.99 368.592 243.524 368.018 243.524Z" fill="white"/>
<path d="M396.909 243.524H385.134C384.559 243.524 384.094 243.99 384.094 244.564C384.094 245.139 384.559 245.604 385.134 245.604H396.909C397.483 245.604 397.949 245.139 397.949 244.564C397.949 243.99 397.483 243.524 396.909 243.524Z" fill="white"/>
<path d="M358.022 248.392H356.127C355.553 248.392 355.087 248.858 355.087 249.432C355.087 250.007 355.553 250.473 356.127 250.473H358.022C358.596 250.473 359.062 250.007 359.062 249.432C359.062 248.858 358.596 248.392 358.022 248.392Z" fill="white"/>
<path d="M379.69 248.392H377.795C377.221 248.392 376.755 248.858 376.755 249.432C376.755 250.007 377.221 250.473 377.795 250.473H379.69C380.264 250.473 380.73 250.007 380.73 249.432C380.73 248.858 380.264 248.392 379.69 248.392Z" fill="white"/>
<path d="M385.829 248.392H383.935C383.36 248.392 382.895 248.858 382.895 249.432C382.895 250.007 383.36 250.473 383.935 250.473H385.829C386.404 250.473 386.869 250.007 386.869 249.432C386.869 248.858 386.404 248.392 385.829 248.392Z" fill="white"/>
<path d="M373.796 248.219H362.021C361.447 248.219 360.981 248.685 360.981 249.259C360.981 249.833 361.447 250.299 362.021 250.299H373.796C374.371 250.299 374.836 249.833 374.836 249.259C374.836 248.685 374.371 248.219 373.796 248.219Z" fill="white"/>
<path d="M402.687 248.219H390.912C390.337 248.219 389.872 248.685 389.872 249.259C389.872 249.833 390.337 250.299 390.912 250.299H402.687C403.261 250.299 403.727 249.833 403.727 249.259C403.727 248.685 403.261 248.219 402.687 248.219Z" fill="white"/>
<path d="M363.8 253.087H361.906C361.331 253.087 360.865 253.553 360.865 254.127C360.865 254.702 361.331 255.167 361.906 255.167H363.8C364.374 255.167 364.84 254.702 364.84 254.127C364.84 253.553 364.374 253.087 363.8 253.087Z" fill="white"/>
<path d="M385.468 253.087H383.573C382.999 253.087 382.533 253.553 382.533 254.127C382.533 254.702 382.999 255.167 383.573 255.167H385.468C386.042 255.167 386.508 254.702 386.508 254.127C386.508 253.553 386.042 253.087 385.468 253.087Z" fill="white"/>
<path d="M391.607 253.087H389.713C389.138 253.087 388.673 253.553 388.673 254.127C388.673 254.702 389.138 255.167 389.713 255.167H391.607C392.182 255.167 392.647 254.702 392.647 254.127C392.647 253.553 392.182 253.087 391.607 253.087Z" fill="white"/>
<path d="M379.574 252.914H367.799C367.225 252.914 366.759 253.379 366.759 253.954C366.759 254.528 367.225 254.994 367.799 254.994H379.574C380.149 254.994 380.614 254.528 380.614 253.954C380.614 253.379 380.149 252.914 379.574 252.914Z" fill="white"/>
<path d="M368.134 271.755H366.239C365.665 271.755 365.199 272.221 365.199 272.795C365.199 273.37 365.665 273.835 366.239 273.835H368.134C368.708 273.835 369.174 273.37 369.174 272.795C369.174 272.221 368.708 271.755 368.134 271.755Z" fill="white"/>
<path d="M374.273 271.755H372.378C371.804 271.755 371.338 272.221 371.338 272.795C371.338 273.37 371.804 273.835 372.378 273.835H374.273C374.847 273.835 375.313 273.37 375.313 272.795C375.313 272.221 374.847 271.755 374.273 271.755Z" fill="white"/>
<path d="M391.13 271.929H379.355C378.781 271.929 378.315 272.394 378.315 272.969C378.315 273.543 378.781 274.009 379.355 274.009H391.13C391.705 274.009 392.171 273.543 392.171 272.969C392.171 272.394 391.705 271.929 391.13 271.929Z" fill="white"/>
<path d="M346.466 271.755H344.571C343.997 271.755 343.531 272.221 343.531 272.795C343.531 273.37 343.997 273.835 344.571 273.835H346.466C347.04 273.835 347.506 273.37 347.506 272.795C347.506 272.221 347.04 271.755 346.466 271.755Z" fill="white"/>
<path d="M362.24 271.929H350.465C349.891 271.929 349.425 272.394 349.425 272.969C349.425 273.543 349.891 274.009 350.465 274.009H362.24C362.814 274.009 363.28 273.543 363.28 272.969C363.28 272.394 362.814 271.929 362.24 271.929Z" fill="white"/>
<path d="M352.244 267.061H350.349C349.775 267.061 349.309 267.526 349.309 268.101C349.309 268.675 349.775 269.141 350.349 269.141H352.244C352.818 269.141 353.284 268.675 353.284 268.101C353.284 267.526 352.818 267.061 352.244 267.061Z" fill="white"/>
<path d="M373.912 267.061H372.017C371.443 267.061 370.977 267.526 370.977 268.101C370.977 268.675 371.443 269.141 372.017 269.141H373.912C374.486 269.141 374.952 268.675 374.952 268.101C374.952 267.526 374.486 267.061 373.912 267.061Z" fill="white"/>
<path d="M380.051 267.061H378.156C377.582 267.061 377.116 267.526 377.116 268.101C377.116 268.675 377.582 269.141 378.156 269.141H380.051C380.625 269.141 381.091 268.675 381.091 268.101C381.091 267.526 380.625 267.061 380.051 267.061Z" fill="white"/>
<path d="M368.018 267.234H356.243C355.669 267.234 355.203 267.7 355.203 268.274C355.203 268.849 355.669 269.314 356.243 269.314H368.018C368.592 269.314 369.058 268.849 369.058 268.274C369.058 267.7 368.592 267.234 368.018 267.234Z" fill="white"/>
<path d="M358.022 262.366H356.127C355.553 262.366 355.087 262.831 355.087 263.406C355.087 263.98 355.553 264.446 356.127 264.446H358.022C358.596 264.446 359.062 263.98 359.062 263.406C359.062 262.831 358.596 262.366 358.022 262.366Z" fill="white"/>
<path d="M379.69 262.366H377.795C377.221 262.366 376.755 262.831 376.755 263.406C376.755 263.98 377.221 264.446 377.795 264.446H379.69C380.264 264.446 380.73 263.98 380.73 263.406C380.73 262.831 380.264 262.366 379.69 262.366Z" fill="white"/>
<path d="M385.829 262.366H383.935C383.36 262.366 382.895 262.831 382.895 263.406C382.895 263.98 383.36 264.446 383.935 264.446H385.829C386.404 264.446 386.869 263.98 386.869 263.406C386.869 262.831 386.404 262.366 385.829 262.366Z" fill="white"/>
<path d="M373.796 262.539H362.021C361.447 262.539 360.981 263.005 360.981 263.579C360.981 264.154 361.447 264.619 362.021 264.619H373.796C374.371 264.619 374.836 264.154 374.836 263.579C374.836 263.005 374.371 262.539 373.796 262.539Z" fill="white"/>
<path d="M363.8 257.671H361.906C361.331 257.671 360.865 258.137 360.865 258.711C360.865 259.286 361.331 259.751 361.906 259.751H363.8C364.374 259.751 364.84 259.286 364.84 258.711C364.84 258.137 364.374 257.671 363.8 257.671Z" fill="white"/>
<path d="M385.468 257.671H383.573C382.999 257.671 382.533 258.137 382.533 258.711C382.533 259.286 382.999 259.751 383.573 259.751H385.468C386.042 259.751 386.508 259.286 386.508 258.711C386.508 258.137 386.042 257.671 385.468 257.671Z" fill="white"/>
<path d="M391.607 257.671H389.713C389.138 257.671 388.673 258.137 388.673 258.711C388.673 259.286 389.138 259.751 389.713 259.751H391.607C392.182 259.751 392.647 259.286 392.647 258.711C392.647 258.137 392.182 257.671 391.607 257.671Z" fill="white"/>
<path d="M379.574 257.845H367.799C367.225 257.845 366.759 258.31 366.759 258.885C366.759 259.459 367.225 259.925 367.799 259.925H379.574C380.149 259.925 380.614 259.459 380.614 258.885C380.614 258.31 380.149 257.845 379.574 257.845Z" fill="white"/>
<path d="M336.393 326.776L327.499 312.717L355.416 290.463L366.939 277.697C368.436 276.039 370.342 274.802 372.466 274.111C374.591 273.42 376.86 273.299 379.046 273.759C381.232 274.22 383.259 275.246 384.925 276.735C386.59 278.224 387.836 280.125 388.537 282.246C389.575 285.39 389.352 288.814 387.914 291.796C386.475 294.779 383.935 297.085 380.828 298.23L362.607 304.942L336.393 326.776Z" fill="#FFB6B6"/>
<path d="M127.71 224.841V293.17H175.579V224.841C175.58 224.35 175.423 223.871 175.132 223.476C174.841 223.08 174.43 222.788 173.96 222.643C173.739 222.57 173.507 222.534 173.274 222.536H130.022C129.719 222.536 129.419 222.595 129.138 222.71C128.858 222.826 128.603 222.996 128.389 223.21C128.174 223.424 128.003 223.678 127.887 223.958C127.771 224.238 127.711 224.538 127.71 224.841ZM146.392 248.32C146.404 246.972 146.948 245.685 147.905 244.737C148.862 243.789 150.155 243.257 151.502 243.257C152.849 243.257 154.141 243.789 155.098 244.737C156.055 245.685 156.599 246.972 156.612 248.32V256.248C156.605 257.598 156.063 258.892 155.106 259.844C154.148 260.797 152.852 261.332 151.502 261.332C150.151 261.332 148.855 260.797 147.898 259.844C146.94 258.892 146.399 257.598 146.392 256.248V248.32Z" fill="#2F2E41"/>
<path d="M127.564 290.985V297.574C127.565 297.915 127.701 298.243 127.941 298.485C128.182 298.727 128.508 298.864 128.85 298.867H174.44C174.782 298.865 175.109 298.728 175.35 298.486C175.591 298.244 175.726 297.916 175.726 297.574V290.985H127.564Z" fill="#3F3D56"/>
<path d="M52.4059 121.895V246.654C52.4072 248.244 53.0393 249.768 54.1636 250.892C55.2878 252.017 56.8122 252.649 58.4021 252.65H243.282C244.872 252.649 246.396 252.017 247.521 250.892C248.645 249.768 249.277 248.244 249.278 246.654V121.895C249.274 120.306 248.641 118.784 247.517 117.661C246.394 116.539 244.871 115.907 243.282 115.905H58.4021C56.8136 115.907 55.2906 116.539 54.1667 117.661C53.0429 118.784 52.4097 120.306 52.4059 121.895Z" fill="#3F3D56"/>
<path d="M56.7431 123.447V245.115C56.7446 245.964 57.0827 246.779 57.6833 247.379C58.284 247.98 59.0982 248.318 59.9477 248.319H241.743C242.592 248.318 243.407 247.98 244.007 247.379C244.608 246.779 244.946 245.964 244.948 245.115V123.447C244.948 122.597 244.61 121.781 244.009 121.179C243.409 120.577 242.594 120.238 241.743 120.236H59.9477C59.0972 120.238 58.2822 120.577 57.6814 121.179C57.0806 121.781 56.7432 122.597 56.7431 123.447Z" fill="white"/>
<path d="M90.4813 298.42C90.6664 298.652 90.9016 298.839 91.1693 298.967C91.437 299.095 91.7302 299.161 92.027 299.16H200.184C200.479 299.159 200.771 299.093 201.038 298.966C201.305 298.838 201.54 298.653 201.727 298.423C201.913 298.194 202.046 297.925 202.115 297.638C202.185 297.35 202.19 297.051 202.129 296.761L200.45 288.786C200.38 288.461 200.231 288.159 200.014 287.906C199.798 287.654 199.522 287.459 199.211 287.341C198.986 287.252 198.746 287.207 198.505 287.208H93.6993C93.4576 287.207 93.218 287.252 92.9931 287.341C92.6823 287.459 92.4061 287.654 92.1897 287.906C91.9733 288.159 91.8234 288.461 91.7539 288.786L90.075 296.761C90.0152 297.051 90.0207 297.35 90.091 297.637C90.1613 297.924 90.2946 298.191 90.4813 298.42Z" fill="#2F2E41"/>
<path d="M235.843 136.996H65.738C65.5612 136.992 65.393 136.919 65.2693 136.793C65.1456 136.666 65.0764 136.497 65.0764 136.32C65.0764 136.143 65.1456 135.973 65.2693 135.847C65.393 135.72 65.5612 135.647 65.738 135.643H235.843C236.02 135.647 236.188 135.72 236.312 135.847C236.436 135.973 236.505 136.143 236.505 136.32C236.505 136.497 236.436 136.666 236.312 136.793C236.188 136.919 236.02 136.992 235.843 136.996Z" fill="#3F3D56"/>
<path d="M77.3173 132.189C79.5068 132.189 81.2817 130.375 81.2817 128.137C81.2817 125.898 79.5068 124.084 77.3173 124.084C75.1279 124.084 73.353 125.898 73.353 128.137C73.353 130.375 75.1279 132.189 77.3173 132.189Z" fill="#3F3D56"/>
<path d="M91.0125 132.189C93.202 132.189 94.9769 130.375 94.9769 128.137C94.9769 125.898 93.202 124.084 91.0125 124.084C88.8231 124.084 87.0482 125.898 87.0482 128.137C87.0482 130.375 88.8231 132.189 91.0125 132.189Z" fill="#3F3D56"/>
<path d="M104.708 132.189C106.897 132.189 108.672 130.375 108.672 128.137C108.672 125.898 106.897 124.084 104.708 124.084C102.518 124.084 100.743 125.898 100.743 128.137C100.743 130.375 102.518 132.189 104.708 132.189Z" fill="#3F3D56"/>
<path d="M227.597 125.086H217.87C217.677 125.091 217.494 125.17 217.36 125.308C217.226 125.445 217.15 125.63 217.15 125.822C217.15 126.015 217.226 126.199 217.36 126.337C217.494 126.475 217.677 126.554 217.87 126.559H227.597C227.79 126.556 227.975 126.477 228.11 126.339C228.246 126.202 228.322 126.016 228.322 125.822C228.322 125.629 228.246 125.443 228.11 125.305C227.975 125.168 227.79 125.089 227.597 125.086Z" fill="#3F3D56"/>
<path d="M227.597 127.851H217.87C217.677 127.855 217.494 127.935 217.359 128.072C217.225 128.21 217.149 128.395 217.149 128.587C217.149 128.78 217.225 128.964 217.359 129.102C217.494 129.24 217.677 129.319 217.87 129.323H227.597C227.79 129.321 227.975 129.242 228.111 129.105C228.248 128.967 228.324 128.781 228.324 128.587C228.324 128.393 228.248 128.207 228.111 128.07C227.975 127.932 227.79 127.853 227.597 127.851Z" fill="#3F3D56"/>
<path d="M227.597 130.616H217.87C217.677 130.62 217.494 130.7 217.36 130.837C217.226 130.975 217.15 131.16 217.15 131.352C217.15 131.544 217.226 131.729 217.36 131.867C217.494 132.004 217.677 132.084 217.87 132.088H227.597C227.79 132.085 227.975 132.007 228.11 131.869C228.246 131.731 228.322 131.546 228.322 131.352C228.322 131.159 228.246 130.973 228.11 130.835C227.975 130.697 227.79 130.619 227.597 130.616Z" fill="#3F3D56"/>
<path d="M462.097 293.877C462.391 294.731 462.948 295.471 463.688 295.99C464.428 296.508 465.313 296.779 466.217 296.762L483.866 296.308C484.777 296.29 485.656 295.979 486.375 295.419C487.093 294.86 487.611 294.083 487.851 293.205L490.349 266.498C491.235 266.899 492.2 267.098 493.172 267.078C494.017 267.057 494.85 266.869 495.622 266.527C496.395 266.184 497.092 265.692 497.675 265.079C498.257 264.467 498.714 263.745 499.017 262.957C499.321 262.168 499.467 261.327 499.445 260.482C499.424 259.637 499.237 258.804 498.894 258.032C498.551 257.259 498.059 256.562 497.446 255.979C496.834 255.397 496.113 254.941 495.324 254.637C494.535 254.333 493.694 254.188 492.849 254.209C492.46 254.207 492.073 254.248 491.692 254.329C491.279 253.882 490.776 253.526 490.217 253.285C489.658 253.043 489.054 252.922 488.445 252.928L461.296 253.629C461.071 253.637 460.847 253.665 460.626 253.712C460.031 253.823 459.466 254.06 458.97 254.408C458.474 254.755 458.058 255.205 457.751 255.727C457.443 256.249 457.251 256.83 457.187 257.432C457.123 258.035 457.188 258.644 457.379 259.218L462.097 293.877ZM490.861 264.685L492.638 258.32C492.84 257.585 492.845 256.81 492.652 256.072C492.738 256.072 492.814 256.031 492.9 256.031C494.119 256.005 495.298 256.465 496.178 257.307C497.059 258.15 497.57 259.307 497.598 260.526C497.627 261.744 497.171 262.925 496.331 263.808C495.49 264.69 494.334 265.204 493.116 265.236C492.328 265.261 491.548 265.07 490.861 264.685Z" fill="#2F2E41"/>
<path d="M460.626 253.712C461.205 257.019 467.708 259.344 475.527 258.94C482.717 258.609 488.597 256.084 489.674 253.092C489.275 252.974 488.861 252.919 488.445 252.928L461.296 253.629C461.071 253.637 460.847 253.665 460.626 253.712Z" fill="#3F3D56"/>
<path d="M476.96 279.201C476.996 279.192 477.03 279.177 477.061 279.157L480.894 276.648C480.94 276.618 480.978 276.576 481.004 276.528C481.031 276.479 481.045 276.425 481.045 276.369C481.045 276.314 481.031 276.259 481.004 276.211C480.978 276.162 480.94 276.121 480.894 276.091L476.91 273.481C476.873 273.457 476.832 273.44 476.789 273.432C476.746 273.424 476.702 273.424 476.659 273.433C476.616 273.442 476.575 273.459 476.539 273.483C476.503 273.508 476.472 273.54 476.448 273.576C476.424 273.613 476.407 273.654 476.399 273.697C476.391 273.74 476.391 273.784 476.4 273.827C476.409 273.87 476.427 273.911 476.452 273.947C476.476 273.983 476.508 274.014 476.545 274.038L480.103 276.369L476.696 278.599C476.63 278.642 476.581 278.707 476.559 278.783C476.537 278.859 476.542 278.94 476.573 279.012C476.605 279.084 476.661 279.143 476.732 279.177C476.803 279.212 476.884 279.22 476.96 279.201H476.96Z" fill="#625B9C"/>
<path d="M470.906 279.48C470.971 279.464 471.028 279.429 471.073 279.379C471.117 279.33 471.145 279.268 471.154 279.202C471.163 279.137 471.153 279.07 471.123 279.01C471.094 278.951 471.048 278.901 470.99 278.868L467.457 276.843L470.872 274.306C470.907 274.28 470.937 274.247 470.959 274.21C470.982 274.172 470.996 274.131 471.003 274.087C471.009 274.044 471.007 274 470.996 273.958C470.986 273.915 470.967 273.875 470.941 273.84C470.915 273.805 470.882 273.776 470.844 273.753C470.807 273.731 470.765 273.716 470.722 273.71C470.679 273.703 470.635 273.705 470.592 273.716C470.55 273.727 470.51 273.746 470.475 273.772L466.652 276.612C466.607 276.645 466.572 276.688 466.548 276.738C466.525 276.788 466.514 276.843 466.518 276.899C466.521 276.954 466.538 277.007 466.567 277.054C466.596 277.101 466.636 277.14 466.684 277.168L470.659 279.446C470.734 279.489 470.822 279.501 470.906 279.48Z" fill="#625B9C"/>
<path d="M476.579 281.399C476.611 281.391 476.642 281.378 476.67 281.361C476.708 281.338 476.74 281.308 476.766 281.273C476.792 281.238 476.811 281.198 476.821 281.155C476.831 281.113 476.833 281.068 476.826 281.025C476.82 280.982 476.805 280.94 476.782 280.903L471.348 271.97C471.302 271.895 471.228 271.841 471.142 271.82C471.057 271.799 470.966 271.813 470.891 271.859C470.815 271.905 470.761 271.979 470.74 272.065C470.719 272.151 470.733 272.241 470.779 272.317L476.213 281.25C476.25 281.311 476.305 281.358 476.371 281.385C476.437 281.412 476.51 281.417 476.579 281.399Z" fill="#625B9C"/>
<path d="M171.115 173.772H141.674C140.473 173.772 139.499 174.746 139.499 175.947V178.823C139.499 180.024 140.473 180.998 141.674 180.998H171.115C172.316 180.998 173.29 180.024 173.29 178.823V175.947C173.29 174.746 172.316 173.772 171.115 173.772Z" fill="#625B9C"/>
<path d="M188.277 188.224H124.513C123.312 188.224 122.338 189.197 122.338 190.398V193.275C122.338 194.476 123.312 195.449 124.513 195.449H188.277C189.478 195.449 190.451 194.476 190.451 193.275V190.398C190.451 189.197 189.478 188.224 188.277 188.224Z" fill="#E6E6E6"/>
<path d="M188.277 202.675H124.513C123.312 202.675 122.338 203.649 122.338 204.85V207.726C122.338 208.927 123.312 209.901 124.513 209.901H188.277C189.478 209.901 190.451 208.927 190.451 207.726V204.85C190.451 203.649 189.478 202.675 188.277 202.675Z" fill="#E6E6E6"/>
<path d="M193.682 251.068L193.826 251.524L193.834 251.539L198.181 264.756L203.182 279.986L212.591 308.609L212.682 313.055V313.07L213.381 348.837L211.443 353.685L213.625 361.635C213.625 361.635 212.621 349.618 207.24 356.519C204.193 360.441 200.628 364.454 197.702 368.216C201.966 369.941 206.298 371.502 210.699 372.898C211.649 373.202 212.606 373.491 213.564 373.779C213.769 373.84 213.974 373.901 214.179 373.962C228.766 378.276 243.847 380.7 259.051 381.174C259.841 381.197 260.617 381.212 261.369 381.227C261.635 381.235 261.893 381.243 262.152 381.243C263.003 381.25 263.847 381.258 264.698 381.258C266.415 381.258 268.126 381.233 269.828 381.182C282.429 380.827 294.956 379.133 307.198 376.128C307.114 371.074 306.886 365.168 306.56 358.86C306.408 355.767 302.995 352.415 302.79 349.178C302.646 346.745 305.708 344.458 305.549 341.988C304.515 326.78 303.223 332.618 302.266 321.848C302.167 320.792 302.076 319.781 301.992 318.816C301.376 311.9 300.951 307.575 300.951 307.575L305.04 281.803L311.462 241.34L310.968 240.526L310.413 240.253L276.539 223.487L274.7 218.775C274.164 217.417 273.234 216.251 272.03 215.426C270.826 214.601 269.403 214.155 267.943 214.146L245.629 214.055C244.471 214.05 243.328 214.321 242.296 214.845C241.264 215.37 240.371 216.134 239.693 217.072L233.651 225.44L193.682 251.068Z" fill="#3F3D56"/>
<path d="M217.736 302.24L212.682 313.055L209.232 320.442L203.296 351.519L200.324 354.673L197.778 343.508L171.131 349.425C170.257 344.568 170.897 349.589 170.357 344.261C170.509 344.109 170.669 343.957 170.828 343.805C171.254 343.41 171.611 343.038 171.603 342.68C171.299 324.303 172.211 293.028 179.827 274.081C181.019 270.987 182.592 268.054 184.508 265.348C184.66 265.143 184.805 264.938 184.949 264.733C188.461 259.816 190.68 254.974 193.826 251.531V251.524C193.846 251.508 193.864 251.49 193.88 251.471C193.891 251.465 193.901 251.457 193.91 251.448L215.525 239.987L216.452 266.04L217.113 284.767L217.736 302.24Z" fill="#3F3D56"/>
<path d="M295.676 305.312L301.989 318.819L304.192 323.524L310.126 354.598L313.088 357.744L315.64 346.581L316.839 346.335L338.464 341.857L344.767 361.875C346.188 359.508 346.748 356.723 346.352 353.991C345.956 351.259 344.629 348.747 342.595 346.881C342.164 346.491 341.805 346.112 341.816 345.753C342.174 324.139 340.852 284.671 328.912 268.426C325.12 263.271 322.845 258.136 319.535 254.549C319.525 254.539 319.525 254.529 319.514 254.529L311.459 241.339L310.967 240.529L310.413 240.252L295.676 305.312Z" fill="#3F3D56"/>
<path d="M257.431 207.705C273.826 207.705 287.117 194.414 287.117 178.018C287.117 161.623 273.826 148.332 257.431 148.332C241.035 148.332 227.744 161.623 227.744 178.018C227.744 194.414 241.035 207.705 257.431 207.705Z" fill="#FFB6B6"/>
<path d="M297.555 157.282C297.325 157.037 297.048 156.84 296.74 156.704C296.432 156.567 296.1 156.495 295.763 156.49L296.209 155.25C296.355 154.86 296.394 154.438 296.323 154.028C296.252 153.617 296.073 153.233 295.805 152.914C295.536 152.596 295.188 152.354 294.795 152.214C294.403 152.075 293.98 152.042 293.571 152.119L291.945 152.432L292.099 151.346C292.157 150.942 292.11 150.529 291.961 150.149C291.811 149.768 291.566 149.433 291.248 149.176C290.93 148.919 290.551 148.75 290.147 148.684C289.744 148.618 289.33 148.659 288.947 148.801C288.599 148.938 288.224 148.996 287.851 148.969C287.477 148.943 287.114 148.833 286.789 148.648C286.462 148.469 286.178 148.22 285.957 147.92C285.736 147.62 285.583 147.275 285.509 146.909L284.943 144.178L284.883 144.031C282.125 139.434 276.822 136.09 270.333 134.864C264.556 133.764 258.634 134.324 252.924 134.85C250.659 135.064 248.1 135.303 245.968 136.609C244.156 137.728 242.624 139.967 242.937 142.226C237.307 140.5 231.271 143.944 228.28 148.288C224.736 153.458 224.156 159.934 224.063 164.997C223.81 176.976 226.281 186.777 231.391 194.132C231.764 194.665 231.858 195.777 232.597 196.151L232.444 195.904C233.27 196.317 234.109 196.983 233.796 197.696C232.897 199.748 238.873 204.285 243.084 205.784C250.765 208.523 260.979 208.289 268.161 207.303L268.414 205.604C271.006 205.251 272.831 204.578 273.344 203.526C274.25 202.753 275.023 202.06 275.696 201.42L275.703 201.414C275.716 201.4 275.742 201.381 275.756 201.367C279 198.256 279.753 196.484 280.093 193.785C280.419 191.141 279.84 188.456 279.247 186.037C291.732 187.969 274.33 172.739 285.963 169.794C286.096 169.753 286.232 169.72 286.369 169.694C286.709 169.614 287.048 169.535 287.375 169.441C288.949 169.014 290.455 168.371 291.852 167.529C295.103 165.55 296.176 162.925 297.855 159.967C298.097 159.546 298.199 159.059 298.145 158.576C298.091 158.093 297.884 157.64 297.555 157.282Z" fill="#2F2E41"/>
<path d="M362.426 307.425C362.42 308.591 362.406 310.223 362.353 312.242C362.346 312.522 362.34 312.808 362.333 313.101C362.246 316.812 362.16 319.924 362.02 323.381C362.013 323.621 362.007 323.854 361.993 324.094C361.807 328.918 361.514 334.534 361.007 343.428C360.068 359.858 358.429 345.687 356.783 351.45C356.703 351.736 356.617 352.076 356.537 352.476C356.288 353.926 355.867 355.342 355.284 356.693C354.411 357.213 353.512 357.712 352.626 358.212C350.101 359.618 347.536 360.97 344.951 362.256C343.499 362.976 342.04 363.682 340.574 364.361C340.341 364.468 340.114 364.575 339.888 364.675C332.382 368.146 324.646 371.098 316.736 373.509C315.19 373.975 313.651 374.428 312.092 374.848C310.467 375.301 308.841 375.727 307.196 376.127C294.954 379.133 282.427 380.828 269.826 381.184C268.128 381.237 266.415 381.257 264.696 381.257C263.844 381.257 263.004 381.251 262.151 381.244C261.892 381.244 261.632 381.237 261.372 381.231C260.619 381.211 259.84 381.197 259.053 381.177C243.849 380.703 228.769 378.278 214.183 373.962L213.563 373.782C212.604 373.489 211.651 373.202 210.698 372.896C206.301 371.503 201.968 369.945 197.7 368.219C194.442 366.906 191.222 365.498 188.039 363.995C188.01 363.987 187.983 363.974 187.96 363.955C187.293 363.649 186.62 363.329 185.954 363.002C185.868 362.956 185.774 362.909 185.681 362.862C183.196 361.65 180.738 360.38 178.306 359.052C176.26 354.355 173.382 353.455 171.597 349.325C171.077 348.097 170.702 346.814 170.478 345.5C170.478 345.487 170.471 345.474 170.471 345.454C170.657 347.932 169.678 341.057 170.464 345.427C170.458 345.347 170.451 345.261 170.444 345.161C170.424 344.921 170.398 344.628 170.358 344.261C168.073 321.949 168.219 296.432 167.226 275.406C167.16 274.047 167.091 272.745 167.02 271.502C167 271.089 166.973 270.682 166.947 270.283C166.993 270.163 167.046 270.036 167.106 269.916C167.119 269.882 167.135 269.848 167.153 269.816C167.173 269.775 167.195 269.735 167.22 269.696C167.233 269.676 167.253 269.65 167.266 269.63C167.276 269.607 167.287 269.584 167.3 269.563C167.36 269.47 167.426 269.37 167.499 269.277C167.533 269.237 167.559 269.203 167.593 269.17C167.616 269.136 167.643 269.105 167.673 269.077C167.693 269.045 167.718 269.015 167.746 268.99C167.773 268.963 167.799 268.93 167.833 268.897C167.847 268.876 167.865 268.858 167.886 268.843C167.939 268.783 167.997 268.727 168.059 268.677C168.297 268.458 168.551 268.258 168.819 268.077C168.912 268.017 169.012 267.957 169.105 267.891C169.777 267.489 170.484 267.15 171.217 266.878C171.47 266.785 171.723 266.698 171.997 266.605C172.097 266.578 172.19 266.545 172.29 266.512C172.436 266.465 172.583 266.418 172.736 266.385C173.496 266.159 174.315 265.965 175.201 265.785C175.308 265.765 175.421 265.745 175.534 265.719C175.694 265.686 175.861 265.659 176.027 265.632C176.254 265.592 176.487 265.552 176.72 265.512C178.699 265.199 180.944 264.966 183.423 264.813C183.656 264.799 183.889 264.786 184.122 264.773C184.395 264.759 184.668 264.746 184.948 264.733C185.181 264.719 185.421 264.713 185.661 264.706C185.894 264.693 186.134 264.686 186.381 264.68C187.053 264.66 187.746 264.64 188.453 264.626C190.465 264.586 192.583 264.6 194.808 264.646C195.841 264.673 196.894 264.699 197.973 264.746C198.046 264.746 198.113 264.753 198.18 264.753C199.119 264.786 200.065 264.826 201.038 264.879C201.717 264.913 202.404 264.946 203.09 264.986C203.736 265.026 204.389 265.066 205.048 265.113C205.561 265.139 206.074 265.179 206.594 265.212C207.034 265.246 207.474 265.279 207.913 265.306L208.513 265.346C208.839 265.372 209.166 265.392 209.499 265.426C210.232 265.486 210.965 265.546 211.711 265.606C212.45 265.672 213.203 265.739 213.956 265.805C214.709 265.872 215.468 265.945 216.228 266.019C216.308 266.025 216.381 266.032 216.454 266.039C217.147 266.112 217.84 266.179 218.54 266.252C218.7 266.265 218.866 266.278 219.026 266.298C219.693 266.365 220.373 266.444 221.046 266.515C221.253 266.538 221.458 266.559 221.665 266.582C222.193 266.639 222.712 266.689 223.243 266.751C223.943 266.831 224.656 266.905 225.349 266.998C225.888 267.058 226.428 267.118 226.968 267.185C227.814 267.284 228.673 267.391 229.532 267.504C229.859 267.544 230.185 267.584 230.512 267.631C232.964 267.937 235.442 268.277 237.96 268.63C241.778 269.17 245.655 269.756 249.559 270.389C253.47 271.022 257.403 271.691 261.359 272.395C262.358 272.574 263.357 272.754 264.363 272.941C264.816 273.027 265.269 273.114 265.722 273.201C266.495 273.341 267.268 273.487 268.041 273.634C268.814 273.78 269.587 273.927 270.359 274.08C271.279 274.26 272.205 274.44 273.124 274.62C279.18 275.819 285.203 277.098 291.079 278.437C292.045 278.657 293.011 278.884 293.971 279.103C295.889 279.55 297.79 280.003 299.674 280.463C300.193 280.582 300.706 280.709 301.219 280.836C302.499 281.155 303.778 281.475 305.037 281.802L305.257 281.862C306.183 282.088 307.089 282.321 307.995 282.561C310.134 283.121 312.237 283.687 314.304 284.26C315.677 284.64 317.034 285.024 318.375 285.413C320.38 285.992 322.346 286.579 324.258 287.172C324.731 287.318 325.204 287.465 325.67 287.605C327.069 288.038 328.448 288.477 329.787 288.917C330.853 289.264 331.893 289.617 332.919 289.97C333.945 290.323 334.951 290.676 335.937 291.029C336.57 291.256 337.196 291.495 337.822 291.722C338.722 292.055 339.608 292.388 340.474 292.721C340.74 292.821 341 292.928 341.26 293.028C341.427 293.101 341.586 293.161 341.746 293.228C342.059 293.354 342.379 293.474 342.686 293.601C342.999 293.721 343.305 293.847 343.612 293.98C343.912 294.1 344.218 294.227 344.511 294.354C344.811 294.473 345.104 294.6 345.397 294.733C345.644 294.833 345.884 294.94 346.117 295.046C346.59 295.253 347.063 295.46 347.523 295.673C347.749 295.779 347.976 295.879 348.202 295.986L348.722 296.226C348.795 296.266 348.868 296.299 348.942 296.332C349.108 296.412 349.281 296.499 349.448 296.579C349.834 296.759 350.214 296.952 350.587 297.132C351.087 297.385 351.573 297.638 352.04 297.885C352.513 298.138 352.972 298.391 353.412 298.637C353.485 298.677 353.552 298.717 353.625 298.757C353.725 298.811 353.825 298.871 353.925 298.924C354.265 299.117 354.591 299.317 354.918 299.51C355.557 299.903 356.164 300.29 356.73 300.676C356.857 300.763 356.976 300.849 357.103 300.929C357.523 301.229 357.923 301.522 358.296 301.822C358.296 301.829 358.296 301.829 358.302 301.829C358.429 301.922 358.549 302.022 358.669 302.115C358.769 302.208 358.875 302.288 358.975 302.382C359.322 302.681 359.641 302.968 359.935 303.261C360.033 303.352 360.126 303.447 360.214 303.548C360.253 303.58 360.289 303.615 360.321 303.654C360.454 303.787 360.574 303.921 360.687 304.054C360.705 304.072 360.721 304.092 360.734 304.114C360.894 304.3 361.041 304.487 361.18 304.673C361.247 304.767 361.32 304.86 361.38 304.953C361.46 305.067 361.54 305.186 361.607 305.3C361.667 305.393 361.72 305.493 361.773 305.586C361.915 305.826 362.035 306.078 362.133 306.339C362.208 306.516 362.268 306.699 362.313 306.885C362.363 307.062 362.401 307.243 362.426 307.425Z" fill="#2F2E41"/>
<path opacity="0.2" d="M362.426 307.425C362.42 308.591 362.406 310.223 362.353 312.242C362.346 312.522 362.333 312.808 362.326 313.101C362.26 315.933 362.16 319.431 362.02 323.381C362.013 323.621 362.007 323.854 361.993 324.094C361.807 328.918 361.514 334.534 361.007 343.428C360.068 359.858 358.429 345.687 356.783 351.45C352.213 348.638 347.203 345.694 341.846 342.669C340.88 342.123 339.905 341.574 338.922 341.023C328.208 335.047 316.243 328.785 303.751 322.582C303.258 322.335 302.758 322.089 302.265 321.849C273.651 307.705 242.418 293.947 217.114 284.766C212.23 282.994 207.567 281.395 203.183 279.99C193.949 277.038 185.967 274.973 179.825 274.08C173.429 273.147 169.012 273.48 167.226 275.406C167.16 274.047 167.091 272.745 167.02 271.502C166.993 271.089 166.966 270.682 166.94 270.282C166.981 270.173 167.034 270.068 167.086 269.963C167.093 269.947 167.099 269.931 167.106 269.916C167.119 269.882 167.135 269.848 167.153 269.816C167.173 269.775 167.195 269.735 167.22 269.696C167.241 269.649 167.268 269.604 167.3 269.563C167.36 269.47 167.426 269.37 167.499 269.276C167.553 269.207 167.611 269.14 167.673 269.077C167.693 269.045 167.718 269.015 167.746 268.99C167.773 268.963 167.799 268.93 167.833 268.897C167.847 268.876 167.865 268.858 167.886 268.843C167.939 268.783 167.997 268.727 168.059 268.677C168.297 268.458 168.551 268.258 168.819 268.077C168.912 268.017 169.012 267.957 169.105 267.891C169.777 267.489 170.483 267.15 171.217 266.878C171.47 266.785 171.723 266.698 171.997 266.605C172.096 266.578 172.19 266.545 172.29 266.512C172.436 266.465 172.583 266.418 172.736 266.385C173.496 266.159 174.315 265.965 175.201 265.785C175.468 265.732 175.747 265.679 176.027 265.632C176.254 265.592 176.487 265.552 176.72 265.512C178.699 265.199 180.944 264.966 183.422 264.813C183.656 264.799 183.889 264.786 184.122 264.773C184.395 264.759 184.668 264.746 184.948 264.733C185.181 264.719 185.421 264.713 185.661 264.706C185.894 264.693 186.134 264.686 186.381 264.679C187.053 264.659 187.746 264.639 188.453 264.626C190.465 264.593 192.583 264.606 194.808 264.653C195.841 264.673 196.894 264.706 197.973 264.753C198.04 264.753 198.113 264.759 198.18 264.759C199.119 264.786 200.072 264.833 201.038 264.879C201.717 264.913 202.403 264.946 203.09 264.986C203.736 265.026 204.389 265.066 205.048 265.113C205.561 265.139 206.074 265.179 206.594 265.212C207.034 265.246 207.473 265.279 207.913 265.306C208.44 265.346 208.966 265.386 209.499 265.426C210.232 265.486 210.965 265.546 211.711 265.606C212.45 265.672 213.203 265.739 213.956 265.805C214.709 265.872 215.468 265.945 216.228 266.019C216.308 266.025 216.381 266.032 216.454 266.039C217.147 266.112 217.84 266.179 218.54 266.252C222.417 266.645 226.408 267.105 230.512 267.631C232.964 267.944 235.446 268.279 237.96 268.637C241.778 269.177 245.655 269.763 249.56 270.389C253.47 271.022 257.403 271.69 261.359 272.394C262.358 272.574 263.357 272.754 264.363 272.941C265.589 273.167 266.815 273.398 268.041 273.634C268.814 273.78 269.587 273.927 270.359 274.08C271.279 274.26 272.205 274.44 273.124 274.62C279.18 275.819 285.203 277.098 291.079 278.437C292.045 278.657 293.011 278.884 293.971 279.103C295.889 279.55 297.79 280.003 299.674 280.463C300.193 280.589 300.706 280.716 301.219 280.842C302.505 281.162 303.778 281.482 305.037 281.802V281.808C305.11 281.822 305.183 281.842 305.257 281.862C306.176 282.095 307.089 282.328 307.995 282.568C310.134 283.127 312.237 283.692 314.304 284.26C315.677 284.646 317.036 285.026 318.375 285.413C320.38 285.999 322.346 286.585 324.258 287.172C324.731 287.318 325.204 287.465 325.67 287.605C327.069 288.044 328.442 288.482 329.787 288.917C330.853 289.263 331.893 289.617 332.919 289.97C333.945 290.323 334.951 290.676 335.937 291.029C336.576 291.256 337.203 291.489 337.822 291.715C338.728 292.048 339.608 292.381 340.474 292.721C340.74 292.821 341 292.928 341.26 293.028C341.746 293.214 342.219 293.407 342.686 293.601C342.999 293.721 343.305 293.847 343.612 293.98C343.912 294.1 344.218 294.227 344.511 294.354C344.811 294.473 345.104 294.6 345.397 294.733C345.644 294.833 345.884 294.94 346.117 295.046C346.59 295.253 347.063 295.459 347.523 295.673C347.749 295.779 347.976 295.879 348.202 295.986L348.722 296.226C348.795 296.266 348.868 296.299 348.942 296.332C349.508 296.599 350.054 296.865 350.587 297.132C351.087 297.385 351.573 297.638 352.04 297.885C352.593 298.178 353.119 298.464 353.625 298.757C353.725 298.811 353.825 298.871 353.925 298.924C354.265 299.117 354.591 299.317 354.918 299.51C355.557 299.903 356.164 300.29 356.73 300.676C357.29 301.062 357.809 301.442 358.296 301.822C358.296 301.829 358.296 301.829 358.302 301.829C358.535 302.015 358.762 302.202 358.975 302.382C359.322 302.681 359.641 302.968 359.935 303.261C360.033 303.352 360.126 303.447 360.214 303.548C360.253 303.58 360.289 303.615 360.321 303.654C360.461 303.807 360.601 303.961 360.734 304.114C360.894 304.3 361.041 304.487 361.18 304.673C361.247 304.767 361.32 304.86 361.38 304.953C361.46 305.067 361.54 305.186 361.607 305.3C361.667 305.393 361.72 305.493 361.773 305.586C361.915 305.826 362.035 306.078 362.133 306.339C362.206 306.517 362.266 306.699 362.313 306.885C362.364 307.062 362.401 307.243 362.426 307.425Z" fill="black"/>
</svg>
