<svg width="120" height="74" viewBox="0 0 120 74" fill="none" xmlns="http://www.w3.org/2000/svg">
<path d="M40.1935 7.88782C40.6226 7.45876 40.9629 6.9494 41.1951 6.3888C41.4273 5.82821 41.5468 5.22736 41.5468 4.62058C41.5468 4.0138 41.4273 3.41295 41.1951 2.85236C40.9629 2.29176 40.6226 1.7824 40.1935 1.35334C39.7644 0.924275 39.2551 0.583925 38.6945 0.351719C38.1339 0.119513 37.533 -4.52089e-09 36.9263 0C36.3195 4.52089e-09 35.7186 0.119513 35.158 0.351719C34.5974 0.583925 34.0881 0.924275 33.659 1.35334L1.35576 33.6566C0.926001 34.0853 0.585037 34.5945 0.352394 35.1551C0.119751 35.7158 0 36.3168 0 36.9238C0 37.5308 0.119751 38.1319 0.352394 38.6925C0.585037 39.2532 0.926001 39.7624 1.35576 40.1911L33.659 72.4943C34.5255 73.3609 35.7008 73.8477 36.9263 73.8477C38.1517 73.8477 39.327 73.3609 40.1935 72.4943C41.06 71.6278 41.5468 70.4525 41.5468 69.2271C41.5468 68.0016 41.06 66.8264 40.1935 65.9598L11.1483 36.9238L40.1935 7.88782ZM79.8065 7.88782C78.94 7.0213 78.4532 5.84603 78.4532 4.62058C78.4532 3.39513 78.94 2.21986 79.8065 1.35334C80.673 0.486809 81.8483 3.16284e-08 83.0738 0C84.2992 -3.16284e-08 85.4745 0.486809 86.341 1.35334L118.644 33.6566C119.074 34.0853 119.415 34.5945 119.648 35.1551C119.88 35.7158 120 36.3168 120 36.9238C120 37.5308 119.88 38.1319 119.648 38.6925C119.415 39.2532 119.074 39.7624 118.644 40.1911L86.341 72.4943C85.4745 73.3609 84.2992 73.8477 83.0738 73.8477C81.8483 73.8477 80.673 73.3609 79.8065 72.4943C78.94 71.6278 78.4532 70.4525 78.4532 69.2271C78.4532 68.0016 78.94 66.8264 79.8065 65.9598L108.852 36.9238L79.8065 7.88782Z" fill="white"/>
</svg>
