<svg width="113" height="106" viewBox="0 0 113 106" fill="none" xmlns="http://www.w3.org/2000/svg">
<path d="M74.8417 4.8532C74.9865 4.38241 75.0371 3.88771 74.9907 3.39736C74.9443 2.907 74.8018 2.43058 74.5713 1.99531C74.3407 1.56003 74.0267 1.17442 73.6472 0.860498C73.2677 0.546573 72.83 0.31048 72.3592 0.165697C71.8884 0.0209151 71.3937 -0.0297206 70.9034 0.0166811C70.413 0.0630828 69.9366 0.205613 69.5013 0.436135C69.066 0.666656 68.6804 0.980654 68.3665 1.3602C68.0526 1.73975 67.8165 2.17741 67.6717 2.6482L37.6717 100.148C37.3793 101.099 37.4766 102.127 37.9421 103.006C38.4077 103.885 39.2034 104.543 40.1542 104.836C41.105 105.128 42.133 105.031 43.0121 104.565C43.8912 104.1 44.5493 103.304 44.8417 102.353L74.8417 4.8532ZM32.6617 23.5957C33.0109 23.944 33.288 24.3579 33.477 24.8134C33.6661 25.269 33.7634 25.7574 33.7634 26.2507C33.7634 26.744 33.6661 27.2324 33.477 27.688C33.288 28.1435 33.0109 28.5574 32.6617 28.9057L9.0592 52.5007L32.6617 76.0957C33.3659 76.7999 33.7614 77.7549 33.7614 78.7507C33.7614 79.7465 33.3659 80.7016 32.6617 81.4057C31.9576 82.1098 31.0025 82.5054 30.0067 82.5054C29.0109 82.5054 28.0559 82.1098 27.3517 81.4057L1.1017 55.1557C0.752479 54.8074 0.475408 54.3935 0.286359 53.9379C0.097311 53.4824 0 52.994 0 52.5007C0 52.0074 0.097311 51.519 0.286359 51.0634C0.475408 50.6079 0.752479 50.194 1.1017 49.8457L27.3517 23.5957C27.7 23.2465 28.1139 22.9694 28.5695 22.7804C29.025 22.5913 29.5134 22.494 30.0067 22.494C30.5 22.494 30.9884 22.5913 31.444 22.7804C31.8995 22.9694 32.3134 23.2465 32.6617 23.5957ZM79.8517 23.5957C79.5025 23.944 79.2254 24.3579 79.0364 24.8134C78.8473 25.269 78.75 25.7574 78.75 26.2507C78.75 26.744 78.8473 27.2324 79.0364 27.688C79.2254 28.1435 79.5025 28.5574 79.8517 28.9057L103.454 52.5007L79.8517 76.0957C79.503 76.4444 79.2265 76.8583 79.0378 77.3138C78.8491 77.7694 78.752 78.2576 78.752 78.7507C78.752 79.2438 78.8491 79.732 79.0378 80.1876C79.2265 80.6431 79.503 81.057 79.8517 81.4057C80.2004 81.7544 80.6143 82.0309 81.0698 82.2196C81.5254 82.4083 82.0136 82.5054 82.5067 82.5054C82.9998 82.5054 83.488 82.4083 83.9436 82.2196C84.3991 82.0309 84.813 81.7544 85.1617 81.4057L111.412 55.1557C111.761 54.8074 112.038 54.3935 112.227 53.9379C112.416 53.4824 112.513 52.994 112.513 52.5007C112.513 52.0074 112.416 51.519 112.227 51.0634C112.038 50.6079 111.761 50.194 111.412 49.8457L85.1617 23.5957C84.8134 23.2465 84.3995 22.9694 83.944 22.7804C83.4884 22.5913 83 22.494 82.5067 22.494C82.0135 22.494 81.525 22.5913 81.0695 22.7804C80.6139 22.9694 80.2 23.2465 79.8517 23.5957Z" fill="white"/>
</svg>
