<svg width="80" height="50" viewBox="0 0 80 50" fill="none" xmlns="http://www.w3.org/2000/svg">
<path d="M3.6539 3.98069C5.76924 5.09605 35.1533 21.115 36.2494 21.6919C37.3455 22.2688 38.4609 22.538 40.1916 22.538C41.9223 22.538 43.0377 22.2688 44.1338 21.6919C45.23 21.115 74.614 5.09605 76.7293 3.98069C77.5178 3.57685 78.8447 2.8461 79.1331 2.01919C79.6331 0.557681 79.0947 0 76.9601 0H40.1916H3.42313C1.28856 0 0.750111 0.576911 1.2501 2.01919C1.53856 2.86533 2.86545 3.57685 3.6539 3.98069Z" fill="white"/>
<path d="M78.4023 4.84605C76.8254 5.65372 62.6718 15.7304 53.3066 21.788L69.114 39.5761C69.4986 39.9607 69.6717 40.4222 69.4601 40.653C69.2294 40.8645 68.7294 40.7492 68.3255 40.3838L49.3644 24.3841C46.4991 26.2302 44.4799 27.4994 44.1337 27.6917C42.653 28.4417 41.6145 28.5379 40.1915 28.5379C38.7684 28.5379 37.73 28.4417 36.2493 27.6917C35.8839 27.4994 33.8839 26.2302 31.0186 24.3841L12.0574 40.3838C11.6728 40.7684 11.1536 40.8838 10.9229 40.653C10.6921 40.4415 10.8652 39.9607 11.2498 39.5761L27.0379 21.788C17.6727 15.7304 3.36532 5.65372 1.78842 4.84605C0.0961517 3.98068 0 4.99989 0 5.78834C0 6.57678 0 45.2106 0 45.2106C0 46.999 2.63456 49.2298 4.51914 49.2298H40.1915H75.8638C77.7484 49.2298 79.9984 46.9798 79.9984 45.2106C79.9984 45.2106 79.9984 6.55755 79.9984 5.78834C79.9984 4.98066 80.1138 3.98068 78.4023 4.84605Z" fill="white"/>
</svg>
