<svg width="122" height="76" viewBox="0 0 122 76" fill="none" xmlns="http://www.w3.org/2000/svg">
<path d="M5.57201 6.07055C8.79791 7.77148 53.6085 32.2003 55.2801 33.0801C56.9517 33.9599 58.6527 34.3705 61.292 34.3705C63.9314 34.3705 65.6323 33.9599 67.3039 33.0801C68.9755 32.2003 113.786 7.77148 117.012 6.07055C118.214 5.4547 120.238 4.3403 120.678 3.07926C121.44 0.850463 120.619 0 117.364 0H61.292H5.2201C1.96487 0 1.14374 0.87979 1.90622 3.07926C2.34612 4.36962 4.36963 5.4547 5.57201 6.07055Z" fill="black"/>
<path d="M119.563 7.39023C117.159 8.62194 95.5745 23.9889 81.2926 33.2267L105.399 60.3536C105.985 60.9401 106.249 61.6439 105.927 61.9958C105.575 62.3184 104.812 62.1425 104.196 61.5853L75.2807 37.1858C70.9111 40.0011 67.8318 41.9366 67.3039 42.2299C65.0458 43.3736 63.4622 43.5203 61.292 43.5203C59.1219 43.5203 57.5382 43.3736 55.2801 42.2299C54.7229 41.9366 51.673 40.0011 47.3034 37.1858L18.3876 61.5853C17.8011 62.1718 17.0093 62.3478 16.6574 61.9958C16.3054 61.6733 16.5694 60.9401 17.1559 60.3536L41.2328 33.2267C26.9509 23.9889 5.13211 8.62194 2.72735 7.39023C0.146631 6.07055 0 7.62484 0 8.82722C0 10.0296 0 68.9462 0 68.9462C0 71.6735 4.01771 75.0754 6.89169 75.0754H61.292H115.692C118.566 75.0754 121.998 71.6442 121.998 68.9462C121.998 68.9462 121.998 10.0003 121.998 8.82722C121.998 7.59552 122.173 6.07055 119.563 7.39023Z" fill="black"/>
</svg>
