<svg width="122" height="119" viewBox="0 0 122 119" fill="none" xmlns="http://www.w3.org/2000/svg">
<path fill-rule="evenodd" clip-rule="evenodd" d="M60.9995 0C27.3148 0 0 27.3088 0 60.9995C0 87.9517 17.4782 110.816 41.7152 118.883C44.7627 119.448 45.882 117.559 45.882 115.948C45.882 114.494 45.8254 109.689 45.7991 104.591C28.829 108.281 25.2481 97.3943 25.2481 97.3943C22.4733 90.3437 18.4752 88.4689 18.4752 88.4689C12.9397 84.6829 18.8924 84.7617 18.8924 84.7617C25.0168 85.191 28.2431 91.0477 28.2431 91.0477C33.6837 100.371 42.5132 97.6762 45.9941 96.1186C46.5416 92.176 48.1224 89.484 49.8669 87.9608C36.3181 86.4203 22.0743 81.1889 22.0743 57.8156C22.0743 51.1558 24.4582 45.7143 28.3603 41.4414C27.7259 39.906 25.638 33.7018 28.9502 25.2996C28.9502 25.2996 34.0716 23.6602 45.7284 31.5523C50.5952 30.1997 55.8145 29.5199 60.9995 29.4967C66.1814 29.5199 71.4038 30.1977 76.2797 31.5503C87.9224 23.6582 93.0377 25.2976 93.0377 25.2976C96.358 33.6988 94.27 39.904 93.6367 41.4394C97.5479 45.7122 99.9146 51.1538 99.9146 57.8136C99.9146 81.2424 85.6445 86.4001 72.0614 87.9113C74.2503 89.8043 76.1999 93.5175 76.1999 99.2075C76.1999 107.369 76.1292 113.938 76.1292 115.947C76.1292 117.571 77.2282 119.473 80.3192 118.874C104.542 110.799 122 87.9416 122 60.9995C121.999 27.3108 94.6872 0.00101005 60.9995 0.00101005V0Z" fill="#181616"/>
</svg>
