<svg width="122" height="122" viewBox="0 0 122 122" fill="none" xmlns="http://www.w3.org/2000/svg">
<path d="M113 0.000462001H9C6.64031 -0.0235528 4.36747 0.889506 2.68019 2.53929C0.992909 4.18908 0.0290113 6.44083 0 8.80046V113.22C0.0342578 115.577 1.00046 117.823 2.68717 119.469C4.37388 121.114 6.64373 122.025 9 122H113C115.36 122.019 117.631 121.103 119.318 119.452C121.004 117.801 121.968 115.55 122 113.19V8.77046C121.958 6.41775 120.989 4.17673 119.304 2.53452C117.618 0.892307 115.353 -0.0183596 113 0.000462001ZM36.17 104H18.06V45.7305H36.17V104ZM27.17 37.7905C25.0929 37.7924 23.0618 37.1783 21.3338 36.0258C19.6058 34.8732 18.2584 33.234 17.4621 31.3156C16.6659 29.3971 16.4565 27.2856 16.8605 25.2481C17.2646 23.2107 18.2638 21.3388 19.7318 19.8694C21.1999 18.3999 23.0708 17.3989 25.1079 16.993C27.1449 16.587 29.2567 16.7943 31.1759 17.5888C33.0951 18.3832 34.7355 19.729 35.8897 21.4559C37.0439 23.1829 37.66 25.2133 37.66 27.2905C37.6574 28.671 37.3825 30.0375 36.8512 31.3118C36.3198 32.586 35.5424 33.7429 34.5634 34.7163C33.5844 35.6897 32.4231 36.4605 31.1458 36.9846C29.8686 37.5087 28.5006 37.7757 27.12 37.7705L27.17 37.7905ZM104 104H85.89V75.6505C85.89 68.9005 85.77 60.2105 76.48 60.2105C67.19 60.2105 65.61 67.5705 65.61 75.2105V104H47.53V45.7305H64.89V53.7305H65.13C67.55 49.1505 73.45 44.3205 82.26 44.3205C100.6 44.2805 104 56.3505 104 72.0005V104Z" fill="black"/>
</svg>
