<svg width="80" height="80" viewBox="0 0 80 80" fill="none" xmlns="http://www.w3.org/2000/svg">
<path d="M74.0984 0.000302951H5.90164C4.3543 -0.0154445 2.86391 0.583283 1.7575 1.66511C0.651088 2.74694 0.0190238 4.22349 0 5.77079V74.2429C0.0224642 75.7879 0.65604 77.2611 1.76208 78.3401C2.86812 79.4191 4.35654 80.0161 5.90164 80.0003H74.0984C75.6458 80.0126 77.1352 79.4118 78.241 78.3293C79.3469 77.2468 79.9793 75.7706 80 74.2233V5.75112C79.9724 4.20836 79.337 2.73884 78.2319 1.66198C77.1268 0.58512 75.6413 -0.0120391 74.0984 0.000302951V0.000302951ZM23.718 68.197H11.8426V29.9872H23.718V68.197ZM17.8164 24.7806C16.4543 24.7819 15.1225 24.3792 13.9894 23.6234C12.8562 22.8677 11.9727 21.7928 11.4506 20.5348C10.9284 19.2768 10.7912 17.8922 11.0561 16.5562C11.321 15.2201 11.9763 13.9927 12.9389 13.0291C13.9016 12.0655 15.1284 11.4091 16.4642 11.1429C17.8 10.8767 19.1847 11.0127 20.4432 11.5336C21.7017 12.0546 22.7774 12.9371 23.5343 14.0695C24.2911 15.2019 24.6951 16.5333 24.6951 17.8954C24.6934 18.8007 24.5131 19.6967 24.1647 20.5323C23.8163 21.3679 23.3065 22.1265 22.6645 22.7648C22.0226 23.4031 21.261 23.9086 20.4235 24.2522C19.586 24.5959 18.6889 24.771 17.7836 24.7675L17.8164 24.7806ZM68.1967 68.197H56.3213V49.6069C56.3213 45.1806 56.2426 39.4823 50.1508 39.4823C44.059 39.4823 43.023 44.3085 43.023 49.3183V68.197H31.1672V29.9872H42.5508V35.2331H42.7082C44.2951 32.2298 48.1639 29.0626 53.941 29.0626C65.9672 29.0364 68.1967 36.9511 68.1967 47.2134V68.197Z" fill="white"/>
</svg>
