<svg width="80" height="80" viewBox="0 0 80 80" fill="none" xmlns="http://www.w3.org/2000/svg">
<path d="M40 0C62.0922 0 80 17.9078 80 40C80 62.0922 62.0922 80 40 80C17.9078 80 0 62.0922 0 40C0 17.9078 17.9078 0 40 0ZM53.7983 56.3043C54.5339 54.047 57.9809 31.5496 58.407 27.1165C58.5356 25.7739 58.1113 24.8817 57.28 24.4835C56.2748 24 54.7861 24.2417 53.0591 24.8643C50.6904 25.7183 20.4087 38.5756 18.6591 39.32C17 40.0243 15.4313 40.793 15.4313 41.9061C15.4313 42.6887 15.8957 43.1287 17.1757 43.5861C18.5078 44.0609 21.8626 45.0783 23.8435 45.6243C25.7513 46.1513 27.9235 45.6939 29.1409 44.9374C30.4313 44.1357 45.3235 34.1704 46.393 33.2974C47.4609 32.4243 48.313 33.5426 47.44 34.4174C46.567 35.2904 36.3443 45.2122 34.9965 46.5861C33.36 48.2539 34.5217 49.9826 35.6191 50.6748C36.873 51.4643 45.8904 57.513 47.2487 58.4835C48.607 59.4539 49.9843 59.8939 51.2452 59.8939C52.5061 59.8939 53.1704 58.233 53.7983 56.3043Z" fill="white"/>
</svg>
